<!DOCTYPE svg PUBLIC "-//W3C//DTD SVG 1.1//EN" "http://www.w3.org/Graphics/SVG/1.1/DTD/svg11.dtd">

<!-- Uploaded to: SVG Repo, www.svgrepo.com, Transformed by: SVG Repo Mixer Tools -->
<svg xmlns="http://www.w3.org/2000/svg" viewBox="0 0 64 64" width="64" height="64" preserveAspectRatio="xMidYMid meet">

<g id="SVGRepo_bgCarrier" stroke-width="0"/>

<g id="SVGRepo_tracerCarrier" stroke-linecap="round" stroke-linejoin="round" stroke="#CCCCCC" stroke-width="0.128"/>

<g id="SVGRepo_iconCarrier"> <style type="text/css"> .st0{fill:none;stroke:#007fe0;stroke-width:1.6640000000000001;stroke-miterlimit:10;} .st1{fill:none;stroke:#007fe0;stroke-width:1.6640000000000001;stroke-linecap:round;stroke-linejoin:round;stroke-miterlimit:10;} .st2{fill:none;stroke:#007fe0;stroke-width:1.6640000000000001;stroke-linecap:round;stroke-linejoin:round;stroke-miterlimit:10;stroke-dasharray:6,5;} </style> <g> <g> <path class="st1" d="M43,30.7v15.5c0,1.5-1.2,2.7-2.7,2.7H14.7c-1.5,0-2.7-1.2-2.7-2.7V30.7c0-1.5,1.2-2.7,2.7-2.7h25.6 C41.8,28,43,29.2,43,30.7z"/> <line class="st1" x1="12" x2="43" y1="33.5" y2="33.5"/> </g> <g> <path class="st1" d="M20.1,24l1.9-7c0.4-1.5,1.9-2.3,3.4-1.9L50,21.7c1.5,0.4,2.3,1.9,1.9,3.4l-4,15"/> <line class="st1" x1="21.2" x2="51.2" y1="19.7" y2="27.7"/> </g> </g> <circle class="st1" cx="37" cy="43" r="2"/> <circle class="st1" cx="33" cy="43" r="2"/> </g>

</svg>